<?xml version="1.0" standalone="no"?>
<!DOCTYPE svg PUBLIC "-//W3C//DTD SVG 20010904//EN"
 "http://www.w3.org/TR/2001/REC-SVG-20010904/DTD/svg10.dtd">
<svg version="1.0" xmlns="http://www.w3.org/2000/svg"
 width="200.000000pt" height="200.000000pt" viewBox="0 0 200.000000 200.000000"
 preserveAspectRatio="xMidYMid meet">

<g transform="translate(0.000000,200.000000) scale(0.100000,-0.100000)"
fill="#FFFFFF" stroke="none">
<path d="M897 1726 c-230 -101 -418 -270 -513 -461 -52 -107 -73 -181 -81
-292 -26 -351 219 -673 564 -739 156 -30 293 -10 443 63 79 38 109 60 181 132
72 72 94 102 132 181 56 114 82 232 74 329 -18 218 -196 450 -365 477 -60 9
-70 -13 -82 -174 -5 -72 -16 -146 -23 -165 -42 -99 -153 -102 -207 -6 -48 87
-71 333 -51 558 5 69 9 126 8 128 -2 1 -37 -13 -80 -31z m-73 -564 c32 -150
92 -249 178 -293 57 -29 133 -35 199 -16 109 32 177 123 200 266 l12 74 25
-29 c43 -52 93 -169 99 -231 14 -164 -83 -354 -234 -456 -218 -147 -498 -122
-683 63 -73 73 -115 148 -142 252 -61 242 44 492 282 671 l35 27 7 -130 c4
-72 14 -160 22 -198z"/>
</g>
</svg>
