<?xml version="1.0" encoding="UTF-8" ?>
<svg width="42px" height="42px" viewBox="0 0 42 42" version="1.1" xmlns="http://www.w3.org/2000/svg">
    <g id="#000000ff" stroke="#FFFFFF">
        <circle cx="50%" cy="50%"  stroke-width="1" r="20.5" fill-opacity="0"/>
        <path fill="#000000" opacity="1.00" fill-opacity="0"
              d=" M 12.84 9.97 C 15.50 9.76 18.52 9.46 20.61 11.48 C 23.12 13.36 23.49 16.61 23.59 19.52 C 26.98 22.04 30.42 24.50 33.82 27.01 C 32.52 28.74 31.25 30.49 29.99 32.24 C 26.61 29.81 23.28 27.31 19.87 24.93 C 17.35 25.67 14.47 26.37 12.10 24.79 C 9.20 23.28 8.34 19.95 7.89 16.97 C 9.06 17.75 10.22 18.54 11.39 19.32 C 13.01 18.77 14.64 18.24 16.27 17.72 C 16.26 16.10 16.25 14.49 16.25 12.88 C 15.11 11.91 13.98 10.94 12.84 9.97 Z"/>
    </g>
</svg>
